PathFileType	4	(X/Y/Z)	OpenSim_Sub03_CSBaseline_Accel.trc
DataRate	CameraRate	NumFrames	NumMarkers	Units	OrigDataRate	OrigDataStartFrame	OrigNumFrames
100	100	17	8	m	100	6967	9288
Frame#	Time	torso_imu_offset_imu	pelvis_imu_offset_imu	tibia_r_imu_offset_imu	femur_r_imu_offset_imu	tibia_l_imu_offset_imu	femur_l_imu_offset_imu	toes_r_imu_offset_imu	toes_l_imu_offset_imu
				X1	Y1	Z1	X2	Y2	Z2	X3	Y3	Z3	X4	Y4	Z4	X5	Y5	Z5	X6	Y6	Z6	X7	Y7	Z7	X8		Y8	Z8	

6967	69.66000000	9.05137694	1.03502070	5.78095422	9.23615751	-1.30835208	1.13902108	9.82934276	2.33286552	0.87333681	9.76102878	-4.53925073	3.25837779	10.13806193	-0.39129835	-1.10120747	9.66601250	0.57983185	-2.11174614	14.28217267	3.82456511	-4.25411881	7.18063426	0.41237543	9.74359837
6968	69.67000000	9.13953208	1.11438395	5.85939264	9.42887266	-1.21968730	1.15368190	9.72305244	1.87094794	0.92373538	9.96498479	-4.37912766	3.85375264	10.10111506	-0.29626538	-1.00224268	9.61264921	0.64221278	-2.11791097	16.18451218	4.18929426	-4.93241862	7.30812067	0.17035288	9.61750017
6969	69.68000000	9.16583908	1.13918039	5.98699507	9.62245640	-1.19885990	1.27244400	9.34898337	1.24069120	0.81314746	9.77832542	-4.72415205	4.06352748	10.08325550	-0.32926681	-0.75765734	9.52639206	0.82184828	-2.13297060	15.98800301	4.62641266	-7.96057327	7.15812021	0.02593519	9.61800196
6970	69.69000000	9.15957231	1.16569763	6.06081623	9.76726100	-1.11332159	1.27934949	8.68771786	0.63433522	0.95063119	10.04902205	-4.90482601	3.96266057	10.01463431	-0.27680905	-0.52585952	9.30426044	0.94376970	-2.15126561	15.74777980	5.74498020	-10.02009940	6.82072526	-0.12764021	9.82945247
6971	69.70000000	9.21413250	1.21792543	6.05719347	9.73927722	-1.03405719	1.31087647	8.49772483	-0.86187831	0.88359967	10.31830510	-5.15020375	4.01033215	10.24428314	0.01185934	-0.17097317	9.21241331	1.07565079	-2.11688788	18.35139042	6.59410449	-12.79160972	6.92334956	-0.22538705	9.77511867
6972	69.71000000	9.17880377	1.25458515	6.07920389	9.58956221	-1.05683449	1.26549420	8.19804040	-1.17461933	0.54618393	10.31210810	-5.01741890	4.17485435	10.33089252	-0.09707501	-0.18504072	9.35432276	1.10706456	-1.95606593	15.43620695	8.84877677	-12.06272410	6.99478749	-0.39297466	9.72188674
6973	69.72000000	9.31112343	1.27670037	6.06922361	9.44593501	-1.20189497	1.17671039	8.23065699	-0.30515081	-0.37629745	10.44005868	-4.68131791	4.12345534	10.62563103	-0.29194654	0.04538464	9.45059631	0.99363392	-1.80462295	10.42712369	3.02088189	6.95159401	7.10968327	-0.69547013	9.61284538
6974	69.73000000	9.91628137	1.28161462	6.06902083	9.47221581	-1.35138751	1.41648628	9.76195750	1.75907395	-2.05754741	12.43543706	-4.02942478	3.73128543	11.14667820	-0.71636140	-0.10815813	9.65104508	0.95320203	-1.72850140	16.00756891	-16.82908898	18.38505742	6.88661803	-1.36751029	9.95628601
6975	69.74000000	11.17447018	1.32799672	6.31567338	9.92181001	-1.24757522	2.07198253	13.59662607	3.28717085	-0.38023745	15.56398236	-2.83034463	2.84485423	11.82057900	-0.91261240	-0.39901564	9.70615805	1.14562700	-1.89484473	5.43636519	-14.70827546	9.73420001	6.94352413	-0.93379491	10.31611148
6976	69.75000000	12.30403291	1.33615645	6.62038487	10.75950931	-0.57572177	3.00556734	16.74590746	-4.82565580	4.22293880	14.53257167	-1.11220007	2.15781535	12.85074834	-0.65169343	-0.13870371	10.02900719	1.50524078	-2.04319979	10.75637751	-5.77181232	7.12904396	6.99569306	-1.00966791	10.37576782
6977	69.76000000	12.22745066	1.15795220	6.85708488	11.69159201	0.56537134	3.41189211	14.89619423	-12.78194441	1.23735419	10.75015897	-0.41767534	1.50747326	13.36884306	-0.96921186	0.26320223	11.16472546	1.74186254	-2.03668813	15.43239122	-0.14660427	10.27381462	6.77398569	-0.83586568	10.64290551
6978	69.77000000	10.95437591	0.77131229	6.82950332	12.34319257	1.25410535	3.17497316	10.71869237	-7.30796145	-0.71941624	7.60366093	-1.97628810	0.21453715	13.40838914	-1.52365701	0.75416311	12.10265288	1.52679042	-1.98709155	10.79491359	4.16450751	11.00951091	6.08462694	-0.01432008	11.05814928
6979	69.78000000	10.15351320	0.36814497	6.55657950	12.44172876	0.69019296	2.75298808	8.38991437	3.31117388	1.06195269	6.51016394	-4.27144302	-0.89254208	13.15645168	-1.06080970	0.68829059	12.30298286	0.78891822	-1.65379341	5.67213373	2.67317861	9.25661315	6.41903498	-0.05747776	10.93825048
6980	69.79000000	10.36306815	0.14115284	6.29604549	11.79787101	-1.09787075	2.48789266	8.83576658	10.82214656	1.64504380	8.26397435	-5.25566955	-1.06131785	12.65150342	0.40850077	0.53265408	11.89579129	-0.11561304	-1.00348974	9.49133391	-0.53672690	9.58108487	6.44226876	1.43767378	10.55597447
6981	69.80000000	10.77260732	0.05444517	5.97798338	10.97937658	-2.64683317	2.41224245	9.31195969	9.87046534	2.34816384	9.46071584	-4.41723693	-0.56408966	12.87023620	2.33478338	0.22842070	11.31943530	-0.63762363	-0.41075475	9.83326150	-0.10857131	9.16179756	6.55832731	1.79433842	10.56994312
6982	69.81000000	10.95338136	-0.02583521	5.72198989	10.40429167	-3.25555313	2.74615439	10.08078299	4.01329409	0.67351392	10.02446142	-1.75663343	0.42777136	12.84403282	3.79248635	-0.19086027	10.55935348	-0.77977373	-0.11644428	8.40001385	-0.84366902	9.04697332	8.87221203	2.21081111	10.17606226
6983	69.82000000	10.66266182	-0.12810273	5.65120470	9.92488583	-3.13168702	3.06790685	11.06317890	3.15084630	-1.68270757	10.16016876	0.71228454	1.15534434	12.30512786	5.31901148	0.31515294	9.70041820	-0.76324052	0.00333802	6.66674230	-1.86773328	8.28305994	8.98870245	4.69384771	10.38183846
